<?xml version="1.0" encoding="utf-8"?>
<!-- Generator: Adobe Illustrator 21.1.0, SVG Export Plug-In . SVG Version: 6.00 Build 0)  -->
<svg version="1.1" baseProfile="tiny" xmlns="http://www.w3.org/2000/svg" xmlns:xlink="http://www.w3.org/1999/xlink" x="0px"
	 y="0px" viewBox="0 0 100 100" xml:space="preserve">
<g id="Layer_2">
	<polygon fill="#A80B0B" points="50,83.7 45,86.2 43.3,90.9 45,95.2 50,96.8 52.9,95.7 56.6,91.1 53.9,84.6 	"/>
	<polygon fill="#8C5302" points="31.3,58.8 31.3,67.5 35.2,75.6 39.7,78.1 42.4,85.8 47.7,83.7 53.9,84.6 56.6,85.8 59.2,73.2 
		62.3,76.8 67.6,69.6 69,61.2 66.6,54.6 63.7,50 58.1,45.6 49.1,44.2 36,47.6 	"/>
	<polyline fill="#8C5302" points="28.6,40.2 27.6,44.2 31.3,50 36.9,49.1 35.7,44.2 28.6,40.2 	"/>
	<polygon fill="#8C5302" points="71.5,37.8 62.5,45.1 62.5,48.2 65.3,50 70.1,50 73.6,42.2 	"/>
</g>
<g id="Your_Icon">
	<circle cx="43.3" cy="61.2" r="3.6"/>
	<circle cx="56.6" cy="61.2" r="3.6"/>
	<path d="M94.6,14.7c-0.3-1.1-1.4-1.9-2.6-1.6l-8.6,2l1.9-11.9c0.2-1.2-0.6-2.3-1.8-2.4c-1.2-0.2-2.3,0.6-2.4,1.8l-2.2,13.7
		l-13.8,3.2c-0.6,0.2-1.2,0.6-1.5,1.2l-0.4,1l-2-4.4l2-4.4l1.9-4c0.5-1.1,0.1-2.3-1-2.8c-1.1-0.5-2.3-0.1-2.8,1l-4.8,10
		c-0.3,0.6-0.3,1.3,0,1.9l4.3,7.9l-7.1,15.9c-1.2-0.2-2.5-0.4-3.8-0.4c-1.2,0-2.5,0.1-3.6,0.3l-7.1-15.9l4.3-7.9
		c0.3-0.6,0.3-1.3,0-1.9L38.7,7c-0.5-1.1-1.8-1.5-2.8-1c-1.1,0.5-1.5,1.8-1,2.8l1.9,4l2.9,3.7l-2.9,5.1l-0.4-1
		c-0.3-0.6-0.8-1-1.5-1.2l-13.8-3.2L18.9,2.6c-0.2-1.2-1.3-2-2.4-1.8c-1.2,0.2-2,1.3-1.8,2.4l1.9,11.9l-8.6-2
		c-1.1-0.3-2.3,0.4-2.6,1.6S5.9,17,7,17.3L23,21l-9.6,7.4c-0.9,0.7-1.1,2.1-0.4,3c0.4,0.5,1.1,0.8,1.7,0.8c0.5,0,0.9-0.1,1.3-0.4
		l12.4-9.5l4.5,1.1l3.6,8l-3-0.5c-1.2-0.2-2.2,0.6-2.4,1.8c-0.2,1.2,0.6,2.2,1.8,2.4l5.7,0.9l3.6,8c-0.9,0.3-1.7,0.7-2.5,1.2
		L28.4,34c-0.6-0.6-1.4-0.8-2.1-0.5c-0.7,0.2-1.3,0.8-1.5,1.6c-0.1,0.4-2.1,10.6,3.2,16c1,1,2.2,1.7,3.4,2.1
		c-1.8,3.2-2.9,6.8-2.9,10.7c0,7.8,4.3,14.7,10.6,18.4c0.4,0.2,0.8,0.4,1.1,0.6c-0.4-0.2-0.8-0.4-1.1-0.6l2,6c0,0.3,0.1,0.6,0.2,0.9
		c-0.1,0.4-0.1,0.9-0.1,1.4c0,4.9,4,8.8,8.8,8.8s8.8-4,8.8-8.8c0-0.5-0.1-1-0.1-1.5c0.1-0.2,0.1-0.5,0.1-0.7l2-6
		c-0.4,0.2-0.8,0.4-1.1,0.6c0.4-0.2,0.8-0.4,1.1-0.6c6.3-3.7,10.5-10.5,10.5-18.3c0-3.9-1.1-7.5-2.9-10.7c1.3-0.3,2.5-1,3.6-2.1
		c5.4-5.4,3.3-15.5,3.2-16c-0.2-0.8-0.7-1.4-1.5-1.6c-0.8-0.2-1.6,0-2.1,0.5L60.4,45.2c-0.8-0.5-1.6-0.9-2.5-1.2l3.6-8.1l5.7-0.9
		c1.2-0.2,2-1.3,1.8-2.4c-0.2-1.2-1.3-2-2.4-1.8l-3,0.5l3.6-8l4.5-1.1L84,31.8c0.4,0.3,0.8,0.4,1.3,0.4c0.6,0,1.3-0.3,1.7-0.8
		c0.7-0.9,0.5-2.3-0.4-3L77,21l16-3.7C94.1,17,94.8,15.9,94.6,14.7z M28.6,40.2l7.4,7.4c-0.2,0.2-0.4,0.4-0.6,0.6
		c-0.7,0.5-1.5,0.8-2.2,0.8l0,0c-0.7,0-1.4-0.3-2.1-1C29.2,46.2,28.7,43,28.6,40.2z M41.1,83.2c0.1,0,0.2,0.1,0.3,0.1
		C41.3,83.3,41.2,83.2,41.1,83.2z M43.8,84.2C43.8,84.2,43.8,84.2,43.8,84.2L43.8,84.2C43.8,84.2,43.8,84.2,43.8,84.2z M42.5,83.8
		C42.5,83.8,42.5,83.8,42.5,83.8C42.5,83.8,42.5,83.8,42.5,83.8z M50,95c-1.7,0-3.2-1-4-2.4c-0.3-0.6-0.6-1.4-0.6-2.1
		s0.2-1.5,0.6-2.1c0.8-1.4,2.3-2.4,4-2.4c1.7,0,3.2,1,4,2.4c0.3,0.6,0.6,1.4,0.6,2.1s-0.2,1.5-0.6,2.1C53.2,94,51.7,95,50,95z
		 M56.1,84.2C56.1,84.2,56.1,84.2,56.1,84.2C56.1,84.2,56.1,84.2,56.1,84.2L56.1,84.2z M58.5,83.3c0.1,0,0.2-0.1,0.3-0.1
		C58.7,83.2,58.6,83.2,58.5,83.3z M57.3,83.7C57.4,83.7,57.4,83.7,57.3,83.7C57.4,83.7,57.4,83.7,57.3,83.7z M63.3,74.3
		c0.3-1.1-0.3-2.2-1.4-2.5c-1.1-0.4-2.3,0.2-2.7,1.4l-2,6l-1.5,4.6c-1.5-1.3-3.6-2.2-5.8-2.2c-2.2,0-4.3,0.8-5.8,2.2l-1.5-4.6l-2-6
		c-0.4-1.1-1.6-1.7-2.7-1.4c-1.1,0.4-1.7,1.5-1.4,2.6c-2.3-2.9-3.8-6.6-3.8-10.7c0-4.8,2-9.1,5.1-12.2c0.7-0.5,1.3-1,1.8-1.5
		c2.8-2.1,6.4-3.4,10.2-3.4c9.4,0,17.1,7.7,17.1,17.1C67,67.8,65.6,71.4,63.3,74.3z M71.4,40.2c0,2.7-0.6,5.9-2.4,7.8
		c-0.7,0.7-1.4,1-2.1,1c-1,0-2.1-0.7-2.9-1.4L71.4,40.2z"/>
</g>
</svg>
