<?xml version="1.0" encoding="utf-8"?>
<!-- Generator: Adobe Illustrator 21.1.0, SVG Export Plug-In . SVG Version: 6.00 Build 0)  -->
<svg version="1.1" baseProfile="tiny" xmlns="http://www.w3.org/2000/svg" xmlns:xlink="http://www.w3.org/1999/xlink" x="0px"
	 y="0px" viewBox="0 0 100 100" xml:space="preserve">
<g id="Layer_2">
	<path fill="#F90606" d="M72.1,42.4"/>
	<polyline fill="#F90606" points="11.6,72.5 8.4,52.4 14.1,33.2 21.8,23.3 36.4,8.9 46.1,11.2 70.7,15.4 76.1,20.6 82,29.4 
		86.1,38.6 72.1,42.4 54.8,46.4 39.2,46.6 24.9,45 22.5,50.2 19.1,60.7 17.3,73.9 11.4,75.3 11.6,72.5 	"/>
	<polygon fill="#FFFFFF" points="27.5,44.7 39.2,46.6 60.8,45.6 72.1,42.4 82.2,38.8 86.4,37.9 90.6,39 93.1,44.1 93.1,50.2 
		93.1,56.2 92.2,58.8 88.7,62.9 79.3,65.5 74.2,66.8 35.2,66.8 21.6,61.1 19.1,57.9 24.3,44.6 	"/>
	<polygon fill="#FFFFFF" points="20.2,73.4 26.6,80.5 26.6,84.7 23.4,90.2 18.2,93 11.8,91.8 7.8,88.3 6.1,82.8 7.8,76.7 11.1,73.4 
		17.3,73.4 	"/>
</g>
<g id="Layer_1">
	<g>
		<g>
			<path fill="none" d="M18,74.3c-1.2,1.5-2.6,1.9-3.5,1.9c-0.1,0-0.1,0-0.2,0c-1.1,0-2.1-0.4-2.9-0.9c-2.1,1.5-5.3,4.9-2.5,11.3
				C12,94,19,91.5,20.3,90.9c1.2-0.5,3.5-2,4.5-4.6c0.9-2.1,0.7-4.6-0.5-7.4c-1.5-3.5-4-4.7-6.1-5.1C18.2,74,18.1,74.1,18,74.3z"/>
			<path fill="none" d="M14.4,73.4c0.4,0,0.8-0.2,1.2-0.6c0-1.8,0.3-7.8,1.8-14.9v0c0.2-0.8,0.4-1.6,0.5-2.3
				c1.4-5.6,3.4-10.4,5.9-14.4c0.4-0.6,0.7-1.1,1.1-1.6c0.4-1.1,2.1-3.3,8.1-6.6c0.7-0.4,1.5-0.1,1.9,0.5c0.4,0.7,0.1,1.5-0.5,1.9
				c-1.6,0.9-2.9,1.7-3.8,2.4c0.5-0.1,0.9-0.1,1.2-0.2c0.8-0.1,1.5,0.4,1.6,1.1c0.1,0.8-0.4,1.5-1.1,1.6c-1.1,0.2-3.7,0.5-5,0.7
				c-0.5,0.8-0.7,1.3-0.9,1.6c4.2,1.6,28.1,7.1,56.4-5.5c0,0,0.1,0,0.1,0l0.5-0.2c0-0.1-0.1-0.3-0.2-0.4c-1.5-4.2-7-18-15.8-20.6
				c-11.6-3.5-26.3-5.6-30.1-4.3C33,13,15.6,26.9,12.5,42.1C9.6,55.9,11.9,70,12.4,72.6C12.8,73,13.6,73.4,14.4,73.4z"/>
			<path fill="none" d="M86.4,37.9C86.4,37.9,86.4,37.9,86.4,37.9c0,0.1,0,0.2-0.1,0.3c0,0,0,0,0,0.1c0,0.1-0.1,0.2-0.2,0.3
				c0,0,0,0,0,0c-0.1,0.1-0.1,0.1-0.2,0.2c0,0,0,0-0.1,0.1c-0.1,0.1-0.2,0.1-0.3,0.2l-1.1,0.5c0,0-0.2,0.1-0.4,0.2l-0.2,0.1
				c0,0-0.1,0-0.1,0c-11.4,5-22,7.2-30.7,7.9c-3.9,0.3-7.5,0.4-10.5,0.3c-7.4-0.2-14.9-1.6-17.8-3c-0.3,0.5-0.5,1-0.7,1.4
				c-0.1,0.2-0.1,0.3-0.2,0.5c-0.2,0.3-0.3,0.7-0.5,1c-0.1,0.2-0.2,0.4-0.3,0.6c-0.1,0.3-0.3,0.6-0.4,0.9c-0.1,0.2-0.2,0.5-0.3,0.7
				c-0.1,0.3-0.2,0.6-0.3,0.9c-0.1,0.2-0.2,0.5-0.3,0.8c-0.1,0.3-0.2,0.6-0.3,0.9c-0.1,0.3-0.2,0.5-0.2,0.8c-0.1,0.3-0.2,0.6-0.3,1
				c-0.1,0.3-0.1,0.6-0.2,0.8c-0.1,0.3-0.2,0.7-0.3,1c-0.1,0.3-0.1,0.6-0.2,0.9c-0.1,0.3-0.1,0.5-0.2,0.8c1,2.1,3.7,4,8,5.5
				c17.2,5.8,52.5,3,61.7-3.1c3.3-2.2,2.5-15.5,1-19.5C90.4,39.3,88.2,38.4,86.4,37.9z"/>
			<path d="M93.6,40c-1.2-3.3-5.2-4.7-8-5.2c-2.2-6.1-7.9-18.8-17.3-21.6C57.1,9.9,41.3,7.3,36.4,8.9C31.2,10.6,13,25.4,9.7,41.5
				c-3,14.5-0.6,28.8-0.1,31.6c-3.7,2.7-6.3,7.7-3.4,14.6c2.2,5.2,6.2,6.8,9.9,6.8c2,0,3.9-0.5,5.3-1.1c0.4-0.2,4.4-1.9,6.1-6.1
				c1.2-2.9,1-6.1-0.5-9.6c-1.7-3.9-4.7-6.3-8.5-6.8c0.1-2.1,0.4-5.4,1-9.2c1.7,1.7,4.3,3.2,7.8,4.4c6.9,2.3,16.3,3.3,26,3.3
				c15.8,0,32-2.7,38.1-6.7C96.7,59.4,94.9,43.7,93.6,40z M12.5,42.1C15.6,26.9,33,13,37.3,11.6c3.9-1.3,18.5,0.8,30.1,4.3
				c8.8,2.7,14.3,16.5,15.8,20.6c0.1,0.2,0.1,0.3,0.2,0.4l-0.5,0.2c0,0-0.1,0-0.1,0c-28.2,12.6-52.2,7.1-56.4,5.5
				c0.1-0.3,0.4-0.8,0.9-1.6c1.3-0.2,3.9-0.5,5-0.7c0.8-0.1,1.3-0.9,1.1-1.6c-0.1-0.8-0.9-1.3-1.6-1.1c-0.3,0.1-0.7,0.1-1.2,0.2
				c1-0.7,2.2-1.4,3.8-2.4c0.7-0.4,0.9-1.2,0.5-1.9c-0.4-0.7-1.2-0.9-1.9-0.5c-6,3.3-7.7,5.4-8.1,6.6c-0.4,0.5-0.8,1.1-1.1,1.6
				c-2.5,4-4.5,8.8-5.9,14.4c-0.2,0.8-0.4,1.5-0.5,2.3v0c-1.5,7.1-1.8,13-1.8,14.9c-0.4,0.4-0.8,0.6-1.2,0.6c-0.7,0-1.5-0.4-2-0.8
				C11.9,70,9.6,55.9,12.5,42.1z M24.4,79c1.2,2.8,1.4,5.3,0.5,7.4c-1,2.5-3.3,4.1-4.5,4.6C19,91.5,12,94,8.9,86.7
				c-2.7-6.5,0.4-9.9,2.5-11.3c0.7,0.4,1.7,0.9,2.9,0.9c0.1,0,0.1,0,0.2,0c0.9,0,2.3-0.4,3.5-1.9c0.1-0.1,0.2-0.3,0.2-0.4
				C20.4,74.2,22.9,75.4,24.4,79z M89.9,60.5c-9.2,6.1-44.5,8.9-61.7,3.1c-4.3-1.4-7-3.3-8-5.5c0.1-0.3,0.1-0.5,0.2-0.8
				c0.1-0.3,0.1-0.6,0.2-0.9c0.1-0.3,0.2-0.7,0.3-1c0.1-0.3,0.1-0.6,0.2-0.8c0.1-0.3,0.2-0.6,0.3-1c0.1-0.3,0.2-0.5,0.2-0.8
				c0.1-0.3,0.2-0.6,0.3-0.9c0.1-0.3,0.2-0.5,0.3-0.8c0.1-0.3,0.2-0.6,0.3-0.9c0.1-0.2,0.2-0.5,0.3-0.7c0.1-0.3,0.3-0.6,0.4-0.9
				c0.1-0.2,0.2-0.4,0.3-0.6c0.2-0.3,0.3-0.7,0.5-1c0.1-0.2,0.1-0.3,0.2-0.5c0.2-0.5,0.5-1,0.7-1.4c2.9,1.4,10.4,2.7,17.8,3
				c3,0.1,6.6,0.1,10.5-0.3c8.7-0.7,19.3-2.9,30.7-7.9c0,0,0.1,0,0.1,0l0.2-0.1c0.2-0.1,0.4-0.2,0.4-0.2l1.1-0.5
				c0.1,0,0.2-0.1,0.3-0.2c0,0,0,0,0.1-0.1c0.1-0.1,0.1-0.1,0.2-0.2c0,0,0,0,0,0c0.1-0.1,0.1-0.2,0.2-0.3c0,0,0,0,0-0.1
				c0-0.1,0.1-0.2,0.1-0.2c0,0,0,0,0,0c1.8,0.5,3.9,1.4,4.5,3.1C92.4,45,93.2,58.4,89.9,60.5z"/>
		</g>
		<path fill="#F90606" d="M127.7,25.8"/>
	</g>
</g>
</svg>
